<?xml version="1.0" encoding="UTF-8" standalone="no"?>
<svg
   xmlns:dc="http://purl.org/dc/elements/1.1/"
   xmlns:cc="http://creativecommons.org/ns#"
   xmlns:rdf="http://www.w3.org/1999/02/22-rdf-syntax-ns#"
   xmlns:svg="http://www.w3.org/2000/svg"
   xmlns="http://www.w3.org/2000/svg"
   xmlns:sodipodi="http://sodipodi.sourceforge.net/DTD/sodipodi-0.dtd"
   xmlns:inkscape="http://www.inkscape.org/namespaces/inkscape"
   version="1.1"
   id="svg2"
   xml:space="preserve"
   width="1330.6667"
   height="513.33331"
   viewBox="0 0 1330.6667 513.33331"
   sodipodi:docname="Logo BRIN_landscape.eps"><metadata
     id="metadata8"><rdf:RDF><cc:Work
         rdf:about=""><dc:format>image/svg+xml</dc:format><dc:type
           rdf:resource="http://purl.org/dc/dcmitype/StillImage" /></cc:Work></rdf:RDF></metadata><defs
     id="defs6" /><sodipodi:namedview
     pagecolor="#ffffff"
     bordercolor="#666666"
     borderopacity="1"
     objecttolerance="10"
     gridtolerance="10"
     guidetolerance="10"
     inkscape:pageopacity="0"
     inkscape:pageshadow="2"
     inkscape:window-width="640"
     inkscape:window-height="480"
     id="namedview4" /><g
     id="g10"
     inkscape:groupmode="layer"
     inkscape:label="ink_ext_XXXXXX"
     transform="matrix(1.3333333,0,0,-1.3333333,0,513.33333)"><g
       id="g12"
       transform="scale(0.1)"><path
         d="m 1146.83,730.574 c 25.1,-59.949 130.27,-124.832 227.3,-163.832 28.92,-11.629 56.74,-19.172 84.03,-35.078 85.57,-49.922 90.15,-128.398 3.32,-206.687 C 1312.19,190.391 1085.77,184.781 912.117,298.391 430.555,580.922 24.2969,1193.07 8.90234,1832.66 226.434,1670.07 488.465,1669.21 737.734,1670.42 c 138.508,0.67 275.746,24.08 414.766,19.21 419.48,-14.68 647.21,-382.64 608.8,-761.657 -5.54,-54.653 -17.87,-131.856 -43.82,-180.785 -32.4,-61.032 -86.05,-85.907 -173.38,-89.868 -138.2,-6.254 -267.96,24.688 -397.27,73.254"
         style="fill:#ec2425;fill-opacity:1;fill-rule:nonzero;stroke:none"
         id="path14" /><path
         d="m 3833.34,2133.89 c -151.63,1230.52 -1286.83,1948.35 -2421.72,1646.74 261.46,-123.01 387.46,-338.64 472.33,-596.23 84.43,-256.21 116.98,-521.18 110.06,-789.24 -4.64,-180.54 118.05,-388.56 385.95,-389.67 469.65,-1.92 939.31,0.23 1408.95,-1.95 40.76,-2.04 50.52,18.85 51.2,45.29 0.62,24.38 -3.61,59.39 -6.77,85.06 z M 2803.3,3289.26 c 15.68,0 21.27,-9.64 24.02,-20.93 4,-16.43 6.04,-30.33 11.04,-47.39 19.77,-67.56 41.31,-134.58 74.24,-196.63 66.7,-125.72 181.41,-183.88 308.57,-224.9 30.29,-9.78 45.82,-10.99 76.62,-16.04 20.35,-3.34 37.46,-10.23 37.71,-32.19 -0.25,-21.97 -17.36,-28.86 -37.71,-32.2 -30.8,-5.05 -46.33,-6.26 -76.62,-16.04 -127.16,-41.03 -241.87,-99.19 -308.57,-224.9 -32.93,-62.05 -54.47,-129.07 -74.24,-196.63 -5,-17.05 -7.04,-30.96 -11.04,-47.39 -2.75,-11.29 -8.34,-20.93 -24.02,-20.93 -15.67,0 -21.26,9.64 -24.01,20.93 -4,16.43 -6.04,30.34 -11.04,47.39 -19.77,67.56 -41.32,134.58 -74.24,196.63 -66.71,125.71 -181.42,183.87 -308.57,224.9 -30.3,9.78 -45.83,10.99 -76.62,16.04 -20.36,3.34 -37.46,10.23 -37.71,32.2 0.25,21.96 17.35,28.85 37.71,32.19 30.79,5.05 46.32,6.26 76.62,16.04 127.15,41.02 241.86,99.18 308.57,224.9 32.92,62.05 54.47,129.07 74.24,196.63 5,17.06 7.04,30.96 11.04,47.39 2.75,11.29 8.34,20.93 24.01,20.93"
         style="fill:#ec2425;fill-opacity:1;fill-rule:nonzero;stroke:none"
         id="path16" /><path
         d="M 3833.34,1724.7 C 3681.71,494.184 2546.51,-223.652 1411.62,77.9648 c 261.45,123.0122 387.46,338.6402 472.33,596.2302 84.43,256.207 116.98,521.175 110.07,789.245 -4.65,180.54 118.04,388.56 385.94,389.67 469.66,1.91 939.31,-0.24 1408.95,1.95 40.76,2.03 50.52,-18.86 51.2,-45.29 0.62,-24.39 -3.61,-59.4 -6.77,-85.07"
         style="fill:#ec2425;fill-opacity:1;fill-rule:nonzero;stroke:none"
         id="path18" /><path
         d="m 926.246,3331.04 c 384.384,0 695.994,-311.61 695.994,-696 0,-384.39 -311.61,-695.99 -695.994,-695.99 -384.387,0 -695.992,311.6 -695.992,695.99 0,384.39 311.605,696 695.992,696"
         style="fill:#ec2425;fill-opacity:1;fill-rule:evenodd;stroke:none"
         id="path20" /><path
         d="m 7089.7,3155.14 254.19,-171.09 0.18,-31.58 v -271.99 l -0.26,-48.87 -130.71,-101.32 128.83,-126.49 v -439.07 l -183.94,-0.51 v 359.72 l -122.92,122.56 h -557.14 v -482.28 h -184.84 v 574.62 28.12 402.84 l 0.44,97.49 h -0.44 v 87.85 h 184.84 602.23 z m -47.51,-520.98 h -564.38 l 0.12,335.64 h 559.54 l 122.51,-77.35 0.25,-167.51 -118.04,-90.78"
         style="fill:#4f4c4c;fill-opacity:1;fill-rule:evenodd;stroke:none"
         id="path22" /><path
         d="M 8146.47,3155.14 V 1964.22 h -184.84 v 1190.92 h 184.84"
         style="fill:#4f4c4c;fill-opacity:1;fill-rule:evenodd;stroke:none"
         id="path24" /><path
         d="m 9979.73,3154.52 v -220.69 l 0.08,-91.34 v -816.86 l -142.55,-61.03 -42.37,42.25 -727.31,727.31 -81.22,81.23 -41.29,41.29 v -14.45 -878.63 h -184.84 v 878.63 91.6 163.21 l 148.07,58.73 36.77,-37.69 171.99,-171.99 81.22,-81.22 596.61,-596.62 v 573.98 91.6 220.69 h 184.84"
         style="fill:#4f4c4c;fill-opacity:1;fill-rule:evenodd;stroke:none"
         id="path26" /><path
         d="m 4693.35,1964.22 h 112 l 96.41,0.51 h 503.05 l 39.18,12.56 198.13,128.32 29.36,61.28 v 271.99 l -25.11,56.53 -81.32,60.25 -5.92,4.02 5.92,4.03 81.32,60.25 25.11,56.53 v 271.98 l -29.36,61.28 -198.13,128.33 -39.18,12.56 h -39.92 -463.13 l -96.41,0.5 h -112 l -72.84,-72.33 v -113.01 -389.28 -41.67 -389.28 -113.02 z m 794.05,777.55 v 150.68 l -122.51,77.35 h -559.54 v -314.44 l 568.32,0.2 z m 0,-364.17 v -150.68 l -122.51,-77.35 h -559.54 v 314.44 l 568.32,-0.21 113.73,-86.2"
         style="fill:#4f4c4c;fill-opacity:1;fill-rule:evenodd;stroke:none"
         id="path28" /><path
         d="m 4677.08,1260.73 h 59.21 c 12.69,0 22.72,3.59 29.54,9.88 6.93,6.38 10.67,15.68 10.67,26.91 0,11.19 -3.72,20.36 -10.6,26.64 -6.83,6.24 -16.87,9.76 -29.61,9.76 h -59.21 z M 9696.54,989.207 c 0,2.383 0.64,4.215 2,5.57 1.35,1.348 3.19,1.977 5.59,1.977 h 41.39 c 2.4,0 4.24,-0.629 5.59,-1.965 1.36,-1.367 2,-3.199 2,-5.582 V 754.16 h 131.05 c 2.39,0 4.22,-0.625 5.57,-1.976 1.35,-1.364 1.98,-3.188 1.98,-5.563 V 710.27 c 0,-2.395 -0.63,-4.227 -1.98,-5.582 -1.34,-1.375 -3.17,-2.012 -5.57,-2.012 h -180.03 c -2.4,0 -4.24,0.629 -5.6,1.996 -1.36,1.348 -1.99,3.183 -1.99,5.598 z M 9458.03,813.785 h 68.41 l -34.02,99.785 z m 6.91,176.356 c 0.62,2.168 1.64,3.785 3.13,4.922 1.53,1.148 3.36,1.691 5.56,1.691 h 38.88 c 2.2,0 4.03,-0.543 5.55,-1.691 1.5,-1.141 2.53,-2.766 3.15,-4.958 l 97.18,-278.906 c 0.74,-2.5 0.6,-4.488 -0.49,-6.066 -1.16,-1.676 -3.01,-2.457 -5.64,-2.457 h -41.43 c -2.2,0 -4.03,0.539 -5.56,1.703 -1.47,1.133 -2.48,2.742 -3.11,4.898 l -18.21,53.414 h -103.44 l -18.22,-53.492 c -0.66,-2.121 -1.66,-3.703 -3.11,-4.82 -1.52,-1.164 -3.35,-1.703 -5.57,-1.703 h -41 c -2.63,0 -4.48,0.777 -5.64,2.457 -1.08,1.582 -1.22,3.566 -0.49,6.066 z m -400.09,-0.934 c 0,2.379 0.62,4.199 1.97,5.555 1.37,1.359 3.19,1.992 5.58,1.992 h 38.9 c 2.08,0 4.06,-0.488 5.84,-1.531 1.66,-0.973 3.09,-2.399 4.2,-4.321 l 112.55,-190.593 v 188.898 c 0,2.395 0.63,4.219 1.99,5.57 1.36,1.348 3.19,1.977 5.57,1.977 h 36.78 c 2.4,0 4.22,-0.629 5.57,-1.965 1.36,-1.363 1.99,-3.187 1.99,-5.582 V 710.27 c 0,-2.403 -0.63,-4.235 -1.98,-5.59 -1.36,-1.371 -3.18,-2.004 -5.58,-2.004 h -38.45 c -2.12,0 -4.11,0.496 -5.89,1.547 -1.63,0.968 -3.05,2.406 -4.16,4.355 L 9116.74,898.715 V 710.27 c 0,-2.415 -0.63,-4.25 -1.98,-5.606 -1.37,-1.359 -3.2,-1.988 -5.59,-1.988 h -36.77 c -2.41,0 -4.24,0.637 -5.59,2.004 -1.35,1.359 -1.96,3.191 -1.96,5.59 z M 8907.66,784.914 c 1.6,5.012 2.81,12.871 3.63,23.543 0.83,10.891 1.25,24.656 1.25,41.281 0,16.625 -0.42,30.391 -1.25,41.274 -0.82,10.676 -2.03,18.531 -3.63,23.539 -4.19,11.793 -10.44,20.664 -18.78,26.539 -8.34,5.879 -18.9,8.851 -31.74,8.851 -12.59,0 -23.03,-2.961 -31.31,-8.804 -8.32,-5.879 -14.6,-14.766 -18.81,-26.598 -1.59,-5 -2.79,-12.848 -3.6,-23.527 -0.83,-10.879 -1.25,-24.645 -1.25,-41.274 0,-16.625 0.42,-30.39 1.25,-41.281 0.81,-10.676 2.01,-18.531 3.59,-23.531 4.22,-11.832 10.5,-20.719 18.81,-26.59 8.29,-5.852 18.73,-8.801 31.32,-8.801 12.84,0 23.4,2.965 31.74,8.836 8.34,5.871 14.59,14.742 18.78,26.543 z M 8752.53,769.68 c -2.59,7.836 -4.54,18.437 -5.83,31.82 -1.29,13.328 -1.93,29.398 -1.93,48.238 0,18.832 0.64,34.899 1.93,48.227 1.29,13.383 3.24,23.973 5.84,31.816 7.59,23.207 20.72,41.055 38.41,53.145 17.84,12.179 40.25,18.474 66.19,18.474 26.14,0 48.63,-6.283 66.51,-18.447 17.77,-12.086 30.92,-29.941 38.51,-53.172 2.61,-7.832 4.56,-18.426 5.85,-31.816 1.28,-13.328 1.93,-29.395 1.93,-48.227 0,-18.843 -0.65,-34.91 -1.93,-48.238 -1.29,-13.395 -3.24,-23.992 -5.85,-31.82 -7.59,-23.235 -20.74,-41.102 -38.5,-53.196 -17.88,-12.168 -40.37,-18.457 -66.52,-18.457 -25.94,0 -48.35,6.293 -66.18,18.485 -17.69,12.09 -30.83,29.953 -38.43,53.168 z M 8593.4,989.207 c 0,2.383 0.64,4.215 2,5.57 1.35,1.344 3.18,1.977 5.55,1.977 h 41.44 c 2.38,0 4.2,-0.633 5.56,-1.977 1.36,-1.351 1.99,-3.179 1.99,-5.57 V 710.27 c 0,-2.395 -0.63,-4.227 -1.98,-5.582 -1.34,-1.375 -3.17,-2.012 -5.57,-2.012 h -41.44 c -2.38,0 -4.22,0.633 -5.56,1.992 -1.36,1.352 -1.99,3.187 -1.99,5.602 z M 8334.23,708.82 c -9.7,3.668 -18.56,7.887 -26.44,12.594 -7.92,4.727 -14.89,9.957 -20.78,15.621 l -0.05,0.039 c -1.55,1.551 -2.51,3.231 -2.78,5.02 -0.3,1.984 0.24,3.91 1.71,5.742 8.63,10.062 17.52,21.039 26.45,30.711 1.59,1.578 3.16,2.543 4.93,2.75 1.94,0.223 3.71,-0.434 5.48,-2.117 12.61,-9.91 25.2,-17.34 37.84,-22.27 12.59,-4.918 25.29,-7.375 38.2,-7.375 16,0 28.74,3.789 37.45,10.457 8.61,6.586 13.31,16.11 13.31,27.617 0,9.942 -3.11,17.754 -10.5,23.582 -7.8,6.164 -20.37,10.375 -38.99,12.821 l -15.23,2.14 c -29.65,4.106 -51.93,13.176 -66.86,27.282 -15.13,14.293 -22.67,33.593 -22.67,57.988 0,27.242 9.95,49.793 27.61,65.539 17.51,15.598 42.55,24.439 72.94,24.439 18.7,0 35.93,-2.478 51.74,-7.384 15.85,-4.918 30.25,-12.278 43.22,-22.028 l 0.06,-0.039 c 1.74,-1.371 2.68,-3.011 2.94,-4.804 0.27,-1.848 -0.22,-3.7 -1.27,-5.446 -6.62,-10.289 -13.54,-21.758 -20.55,-31.648 -1.34,-1.66 -2.94,-2.696 -4.69,-3.071 -1.84,-0.394 -3.72,-0.058 -5.53,1.024 l -0.11,0.066 c -11.15,7.239 -22.32,12.727 -33.51,16.383 -11.12,3.645 -22.3,5.488 -33.58,5.488 -13.36,0 -23.84,-3.429 -30.94,-9.472 -7.13,-6.059 -10.95,-14.899 -10.95,-25.649 0,-9.238 3.99,-16.797 11.9,-22.621 8.38,-6.168 21.09,-10.508 38.05,-12.957 l 15.23,-2.117 c 29.23,-4.121 51.3,-13.301 66.13,-27.645 14.99,-14.5 22.53,-34.113 22.53,-58.925 0,-27.95 -10.53,-51.5 -30.42,-67.891 -18.94,-15.609 -46.33,-24.637 -81.12,-24.637 -10.52,0 -20.86,0.868 -30.99,2.645 -10.11,1.773 -20.04,4.476 -29.76,8.148 z m -274.07,104.965 h 68.42 l -34.02,99.781 z m 6.93,176.403 c 0.62,2.136 1.63,3.742 3.11,4.875 1.52,1.148 3.34,1.691 5.56,1.691 h 38.9 c 2.2,0 4.03,-0.543 5.54,-1.691 1.51,-1.141 2.53,-2.766 3.15,-4.958 l 97.19,-278.906 c 0.73,-2.5 0.59,-4.488 -0.5,-6.066 -1.16,-1.676 -3,-2.457 -5.65,-2.457 h -41.43 c -2.19,0 -4.02,0.539 -5.55,1.703 -1.45,1.117 -2.46,2.707 -3.08,4.82 l -18.25,53.492 h -103.43 l -18.23,-53.414 c -0.63,-2.156 -1.65,-3.765 -3.12,-4.898 -1.52,-1.164 -3.34,-1.703 -5.55,-1.703 h -41 c -2.63,0 -4.49,0.781 -5.64,2.472 -1.09,1.575 -1.22,3.555 -0.5,6.051 z m -400.13,-0.981 c 0,2.398 0.63,4.231 2,5.582 1.35,1.336 3.18,1.965 5.58,1.965 h 38.87 c 2.1,0 4.08,-0.488 5.87,-1.531 1.65,-0.973 3.07,-2.399 4.17,-4.321 l 112.59,-190.593 v 188.898 c 0,2.395 0.62,4.219 1.98,5.57 1.36,1.344 3.19,1.977 5.57,1.977 h 36.79 c 2.38,0 4.2,-0.633 5.55,-1.977 1.37,-1.351 1.99,-3.179 1.99,-5.57 V 710.27 c 0,-2.395 -0.62,-4.227 -1.97,-5.582 -1.34,-1.375 -3.17,-2.012 -5.57,-2.012 h -38.46 c -2.12,0 -4.1,0.484 -5.89,1.547 -1.66,0.988 -3.1,2.437 -4.21,4.402 L 7718.88,898.723 V 710.27 c 0,-2.415 -0.63,-4.25 -1.98,-5.606 -1.37,-1.359 -3.2,-1.988 -5.6,-1.988 h -36.76 c -2.39,0 -4.22,0.629 -5.58,1.988 -1.37,1.379 -2,3.207 -2,5.606 z m -306.1,0 c 0,2.395 0.63,4.219 1.98,5.57 1.37,1.348 3.2,1.977 5.58,1.977 h 41.43 c 2.38,0 4.2,-0.633 5.56,-1.977 1.36,-1.351 1.99,-3.175 1.99,-5.57 V 710.27 c 0,-2.399 -0.63,-4.231 -1.97,-5.582 -1.35,-1.375 -3.18,-2.012 -5.58,-2.012 h -41.43 c -2.38,0 -4.21,0.633 -5.58,2.004 -1.34,1.355 -1.98,3.187 -1.98,5.59 z M 7101.7,708.813 c -9.71,3.667 -18.57,7.886 -26.45,12.593 -7.92,4.723 -14.87,9.961 -20.74,15.617 -1.61,1.59 -2.58,3.27 -2.85,5.059 -0.3,1.988 0.23,3.898 1.67,5.719 8.86,9.812 17.98,20.578 26.49,30.738 1.57,1.574 3.13,2.543 4.93,2.746 1.95,0.215 3.71,-0.441 5.49,-2.113 12.6,-9.91 25.19,-17.336 37.84,-22.27 12.59,-4.914 25.3,-7.375 38.21,-7.375 15.99,0 28.73,3.789 37.44,10.465 8.61,6.586 13.31,16.11 13.31,27.61 0,9.937 -3.11,17.742 -10.51,23.582 -7.8,6.164 -20.39,10.375 -39.01,12.82 l -15.23,2.141 c -29.65,4.101 -51.92,13.168 -66.86,27.281 -15.13,14.289 -22.66,33.59 -22.66,57.984 0,27.242 9.94,49.793 27.61,65.539 17.5,15.602 42.55,24.441 72.93,24.441 18.7,0 35.93,-2.472 51.74,-7.378 15.85,-4.918 30.26,-12.282 43.25,-22.032 l 0.08,-0.05 c 1.72,-1.375 2.64,-3.02 2.89,-4.805 0.27,-1.84 -0.23,-3.687 -1.27,-5.426 -6.53,-10.156 -13.59,-22.031 -20.56,-31.668 -1.34,-1.656 -2.93,-2.687 -4.67,-3.058 -1.85,-0.395 -3.73,-0.059 -5.54,1.023 l -0.1,0.067 c -11.17,7.238 -22.32,12.722 -33.51,16.386 -11.11,3.637 -22.3,5.481 -33.58,5.481 -13.37,0 -23.83,-3.426 -30.93,-9.465 -7.13,-6.055 -10.94,-14.891 -10.94,-25.652 0,-9.243 3.99,-16.801 11.9,-22.625 8.38,-6.165 21.08,-10.504 38.06,-12.958 l 15.19,-2.117 c 29.25,-4.121 51.32,-13.3 66.16,-27.64 15,-14.5 22.53,-34.114 22.53,-58.926 0,-27.942 -10.54,-51.492 -30.43,-67.883 -18.94,-15.621 -46.33,-24.641 -81.11,-24.641 -10.53,0 -20.88,0.864 -31.01,2.645 -10.12,1.773 -20.05,4.477 -29.76,8.145 z m -274.05,104.972 h 68.41 l -34.01,99.781 z m 6.92,176.356 c 0.62,2.168 1.64,3.785 3.13,4.922 1.53,1.148 3.36,1.691 5.56,1.691 h 38.88 c 2.21,0 4.03,-0.543 5.55,-1.691 1.5,-1.141 2.53,-2.766 3.15,-4.958 l 97.19,-278.906 c 0.72,-2.496 0.59,-4.476 -0.49,-6.051 -1.16,-1.687 -3,-2.472 -5.65,-2.472 h -41.43 c -2.2,0 -4.03,0.539 -5.55,1.703 -1.48,1.133 -2.5,2.742 -3.12,4.898 l -18.21,53.414 h -103.44 l -18.22,-53.492 c -0.65,-2.121 -1.65,-3.703 -3.11,-4.82 -1.52,-1.164 -3.35,-1.703 -5.56,-1.703 h -41.01 c -2.63,0 -4.49,0.777 -5.65,2.457 -1.08,1.578 -1.21,3.566 -0.49,6.066 z M 6570.95,702.676 c -2.04,0 -3.8,0.562 -5.28,1.769 -1.37,1.106 -2.36,2.692 -2.97,4.817 l -90.88,279.015 c -0.77,2.633 -0.43,4.711 0.9,6.289 1.26,1.489 3.18,2.188 5.67,2.188 h 41 c 2.21,0 4.03,-0.539 5.54,-1.68 1.5,-1.152 2.53,-2.777 3.15,-4.957 l 61.62,-195.402 59.18,195.453 c 0.65,2.16 1.67,3.77 3.14,4.895 1.53,1.148 3.35,1.691 5.57,1.691 h 41 c 2.47,0 4.38,-0.699 5.64,-2.188 1.34,-1.589 1.68,-3.652 0.95,-6.261 l -91.34,-279.063 c -0.63,-2.109 -1.62,-3.691 -2.97,-4.797 -1.48,-1.207 -3.23,-1.769 -5.27,-1.769 z m -231.94,82.226 c 1.58,5.012 2.79,12.879 3.62,23.575 0.83,10.882 1.26,24.64 1.26,41.253 0,16.614 -0.43,30.372 -1.26,41.254 -0.83,10.696 -2.04,18.555 -3.62,23.563 -4.21,11.789 -10.46,20.656 -18.8,26.535 -8.34,5.883 -18.91,8.848 -31.72,8.848 -12.59,0 -23.03,-2.961 -31.32,-8.805 -8.31,-5.875 -14.59,-14.762 -18.81,-26.594 -1.59,-5.011 -2.79,-12.871 -3.61,-23.574 -0.84,-10.875 -1.27,-24.625 -1.27,-41.227 0,-16.601 0.43,-30.347 1.27,-41.23 0.82,-10.711 2.03,-18.578 3.61,-23.598 4.21,-11.82 10.49,-20.699 18.81,-26.574 8.28,-5.851 18.72,-8.801 31.32,-8.801 12.82,0 23.38,2.961 31.72,8.836 8.34,5.875 14.59,14.739 18.8,26.539 z m -155.13,-15.23 c -2.62,7.832 -4.57,18.426 -5.86,31.82 -1.29,13.336 -1.93,29.403 -1.93,48.238 0,18.833 0.64,34.895 1.93,48.227 1.29,13.391 3.24,23.984 5.86,31.816 7.59,23.207 20.73,41.059 38.42,53.145 17.84,12.187 40.24,18.472 66.19,18.472 26.14,0 48.63,-6.281 66.5,-18.441 17.76,-12.09 30.91,-29.949 38.51,-53.176 2.61,-7.832 4.57,-18.425 5.86,-31.816 1.28,-13.332 1.93,-29.394 1.93,-48.227 0,-18.839 -0.65,-34.91 -1.93,-48.238 -1.29,-13.394 -3.25,-23.988 -5.86,-31.82 -7.6,-23.238 -20.75,-41.106 -38.51,-53.195 -17.87,-12.168 -40.36,-18.454 -66.5,-18.454 -25.95,0 -48.35,6.297 -66.19,18.481 -17.69,12.098 -30.83,29.949 -38.42,53.168 z m -323.64,219.535 c 0,2.383 0.64,4.215 1.99,5.57 1.36,1.348 3.19,1.977 5.59,1.977 h 38.86 c 2.1,0 4.09,-0.488 5.87,-1.531 1.65,-0.973 3.08,-2.395 4.18,-4.321 l 112.59,-190.601 v 188.906 c 0,2.375 0.61,4.195 1.97,5.555 1.34,1.359 3.17,1.992 5.57,1.992 h 36.76 c 2.41,0 4.24,-0.629 5.59,-1.965 1.36,-1.367 2,-3.199 2,-5.582 V 710.27 c 0,-2.415 -0.63,-4.25 -1.99,-5.606 -1.37,-1.359 -3.2,-1.988 -5.6,-1.988 h -38.46 c -2.1,0 -4.09,0.496 -5.87,1.547 -1.63,0.968 -3.06,2.406 -4.18,4.351 L 5912.16,898.711 V 710.27 c 0,-2.399 -0.62,-4.227 -1.98,-5.59 -1.38,-1.375 -3.22,-2.004 -5.61,-2.004 h -36.75 c -2.39,0 -4.23,0.629 -5.59,1.996 -1.36,1.348 -1.99,3.183 -1.99,5.598 z m -159.81,0 c 0,2.395 0.63,4.219 1.98,5.57 1.37,1.348 3.2,1.977 5.59,1.977 h 41.41 c 2.4,0 4.23,-0.629 5.59,-1.965 1.36,-1.367 1.99,-3.199 1.99,-5.582 V 710.27 c 0,-2.415 -0.63,-4.25 -1.98,-5.606 -1.37,-1.359 -3.2,-1.988 -5.6,-1.988 H 5708 c -2.39,0 -4.23,0.633 -5.59,2.004 -1.35,1.355 -1.98,3.187 -1.98,5.59 z m -470.58,0 c 0,2.395 0.63,4.219 1.98,5.57 1.37,1.344 3.19,1.977 5.57,1.977 h 38.89 c 2.09,0 4.06,-0.488 5.85,-1.531 1.65,-0.973 3.08,-2.399 4.2,-4.321 L 5398.89,800.32 v 188.887 c 0,2.379 0.63,4.203 1.98,5.555 1.36,1.359 3.19,1.992 5.57,1.992 h 36.79 c 2.39,0 4.21,-0.633 5.56,-1.977 1.37,-1.351 2,-3.179 2,-5.57 V 710.27 c 0,-2.395 -0.63,-4.227 -1.98,-5.582 -1.35,-1.375 -3.17,-2.012 -5.58,-2.012 h -38.46 c -2.12,0 -4.11,0.496 -5.89,1.547 -1.64,0.972 -3.05,2.41 -4.16,4.355 l -112.98,190.18 V 710.27 c 0,-2.415 -0.63,-4.25 -1.99,-5.606 -1.37,-1.359 -3.2,-1.988 -5.59,-1.988 h -36.76 c -2.39,0 -4.23,0.637 -5.58,2.004 -1.34,1.359 -1.97,3.191 -1.97,5.59 z M 4991.33,813.785 h 68.4 l -34.01,99.77 z m 6.94,176.496 c 0.63,2.098 1.64,3.672 3.09,4.782 1.53,1.148 3.35,1.691 5.57,1.691 h 38.86 c 2.23,0 4.06,-0.539 5.57,-1.68 1.51,-1.16 2.53,-2.789 3.15,-4.969 l 97.22,-278.949 c 0.69,-2.48 0.56,-4.445 -0.53,-6.023 -1.16,-1.676 -3,-2.457 -5.66,-2.457 h -41.41 c -2.22,0 -4.04,0.539 -5.56,1.703 -1.46,1.117 -2.46,2.699 -3.1,4.82 l -18.25,53.492 h -103.43 l -18.24,-53.492 c -0.62,-2.113 -1.62,-3.703 -3.08,-4.82 -1.52,-1.164 -3.34,-1.703 -5.56,-1.703 h -40.99 c -2.65,0 -4.5,0.777 -5.65,2.457 -1.1,1.582 -1.23,3.555 -0.53,6.039 z M 4677.08,754.16 h 41.87 c 15.2,0 27.5,2.895 36.88,8.613 9.27,5.653 15.8,14.172 19.57,25.469 l 0.03,0.082 c 1.57,4.34 2.79,11.559 3.61,21.68 0.84,10.309 1.26,23.547 1.26,39.734 0,16.188 -0.42,29.418 -1.26,39.727 -0.82,10.121 -2.04,17.336 -3.61,21.687 l -0.03,0.082 c -3.77,11.293 -10.3,19.797 -19.57,25.454 -9.37,5.714 -21.67,8.605 -36.88,8.605 h -41.87 z m -56.57,235.047 c 0,2.398 0.64,4.231 2.01,5.582 1.35,1.336 3.19,1.965 5.58,1.965 h 102.68 c 25.83,0 46.95,-5.473 63.46,-16.457 16.6,-11.043 28.46,-27.586 35.67,-49.664 l 0.02,-0.039 c 2.41,-7.653 4.26,-18.391 5.5,-32.172 1.21,-13.422 1.84,-29.664 1.84,-48.684 0,-19.027 -0.63,-35.269 -1.84,-48.695 -1.24,-13.793 -3.09,-24.531 -5.5,-32.191 l -0.02,-0.039 c -7.21,-22.067 -19.07,-38.614 -35.67,-49.661 -16.52,-10.996 -37.63,-16.476 -63.46,-16.476 H 4628.1 c -2.39,0 -4.22,0.629 -5.58,1.988 -1.38,1.379 -2.01,3.207 -2.01,5.606 z m 2804.98,220.863 c -2.39,0 -4.23,0.64 -5.59,2 -1.36,1.34 -1.99,3.18 -1.99,5.59 v 235.01 h -74.42 c -2.4,0 -4.22,0.63 -5.57,1.98 -1.35,1.37 -1.98,3.2 -1.98,5.6 v 36.34 c 0,2.39 0.63,4.21 1.98,5.57 1.35,1.37 3.17,1.99 5.57,1.99 h 205.4 c 2.42,0 4.25,-0.62 5.6,-1.97 1.35,-1.36 1.98,-3.19 1.98,-5.59 v -36.34 c 0,-2.41 -0.63,-4.24 -1.98,-5.6 -1.35,-1.35 -3.18,-1.98 -5.6,-1.98 h -74.42 v -235.01 c 0,-2.4 -0.63,-4.23 -1.97,-5.58 -1.36,-1.38 -3.2,-2.01 -5.6,-2.01 z m -354.7,286.52 c 0,2.4 0.62,4.23 1.98,5.59 1.37,1.34 3.21,1.97 5.6,1.97 h 180.04 c 2.39,0 4.22,-0.62 5.57,-1.97 1.35,-1.38 1.98,-3.2 1.98,-5.59 v -36.34 c 0,-2.4 -0.63,-4.23 -1.98,-5.59 -1.35,-1.36 -3.18,-1.99 -5.57,-1.99 h -131.05 v -68.54 h 110.33 c 2.4,0 4.22,-0.63 5.58,-1.99 1.37,-1.37 2,-3.19 2,-5.56 v -36.35 c 0,-2.41 -0.63,-4.25 -1.98,-5.6 -1.37,-1.35 -3.2,-1.99 -5.6,-1.99 h -110.33 v -71.07 h 131.05 c 2.39,0 4.22,-0.64 5.57,-1.98 1.35,-1.38 1.98,-3.21 1.98,-5.58 v -36.35 c 0,-2.4 -0.63,-4.23 -1.98,-5.58 -1.35,-1.37 -3.18,-2.01 -5.57,-2.01 h -180.04 c -2.41,0 -4.24,0.63 -5.6,1.99 -1.36,1.35 -1.98,3.19 -1.98,5.6 z m -259.12,-280.37 c -9.71,3.67 -18.58,7.89 -26.46,12.6 -7.92,4.72 -14.88,9.95 -20.75,15.61 l -0.03,0.04 c -1.57,1.56 -2.54,3.24 -2.81,5.03 -0.3,2 0.24,3.92 1.71,5.74 7.08,9.44 18.35,21.71 26.43,30.71 1.57,1.57 3.15,2.55 4.95,2.75 1.97,0.23 3.78,-0.45 5.58,-2.21 12.54,-9.87 25.09,-17.27 37.73,-22.2 12.59,-4.91 25.3,-7.36 38.21,-7.36 16,0 28.74,3.8 37.45,10.46 8.61,6.59 13.31,16.11 13.31,27.61 0,9.94 -3.12,17.76 -10.51,23.59 -7.81,6.17 -20.39,10.38 -39,12.82 l -15.24,2.14 c -29.65,4.11 -51.93,13.17 -66.86,27.27 -15.12,14.29 -22.66,33.58 -22.66,58 0,27.24 9.95,49.79 27.61,65.54 17.51,15.6 42.56,24.44 72.93,24.44 18.71,0 35.95,-2.48 51.76,-7.39 15.84,-4.92 30.25,-12.28 43.23,-22.03 l 0.08,-0.05 c 1.73,-1.37 2.65,-3.03 2.9,-4.81 0.25,-1.84 -0.24,-3.68 -1.28,-5.42 -6.68,-10.39 -13.53,-21.56 -20.54,-31.64 -1.32,-1.67 -2.93,-2.7 -4.68,-3.08 -1.85,-0.4 -3.74,-0.06 -5.55,1.02 l -0.1,0.07 c -11.15,7.24 -22.31,12.73 -33.5,16.39 -11.12,3.64 -22.3,5.49 -33.59,5.49 -13.37,0 -23.85,-3.42 -30.94,-9.45 -7.12,-6.08 -10.94,-14.92 -10.94,-25.67 0,-9.24 3.99,-16.81 11.91,-22.63 8.38,-6.17 21.08,-10.51 38.06,-12.96 l 15.19,-2.12 c 29.25,-4.12 51.32,-13.3 66.16,-27.64 14.99,-14.5 22.52,-34.11 22.52,-58.92 0,-27.95 -10.52,-51.5 -30.42,-67.89 -18.94,-15.62 -46.33,-24.64 -81.11,-24.64 -10.53,0 -20.87,0.87 -31,2.64 -10.1,1.78 -20.03,4.48 -29.75,8.15 z m -195.42,280.37 c 0,2.4 0.63,4.23 1.98,5.59 1.38,1.34 3.21,1.97 5.6,1.97 h 41.4 c 2.41,0 4.23,-0.63 5.59,-1.97 1.37,-1.36 2,-3.19 2,-5.59 v -278.93 c 0,-2.41 -0.63,-4.25 -1.98,-5.6 -1.36,-1.36 -3.19,-1.99 -5.61,-1.99 h -41.4 c -2.4,0 -4.24,0.63 -5.6,1.99 -1.35,1.35 -1.98,3.19 -1.98,5.6 z m -191.2,-118.8 c 12.38,0 22.55,3.75 29.6,10.26 7.04,6.5 11.03,15.84 11.03,26.99 0,11.48 -3.94,20.88 -10.91,27.37 -7.04,6.56 -17.26,10.26 -29.72,10.26 h -60.49 v -74.88 z m 49.44,-167.72 c -2.11,0 -3.99,0.5 -5.62,1.56 -1.62,1.06 -2.89,2.62 -3.79,4.73 l -53.94,109.96 h -46.58 v -108.66 c 0,-2.4 -0.63,-4.23 -1.98,-5.58 -1.36,-1.37 -3.19,-2.01 -5.58,-2.01 h -41.43 c -2.38,0 -4.21,0.64 -5.57,2.01 -1.35,1.35 -1.97,3.18 -1.97,5.58 v 278.93 c 0,2.39 0.62,4.22 1.96,5.57 1.36,1.37 3.19,1.99 5.58,1.99 h 111.18 c 13.7,0 26.13,-2.08 37.39,-6.22 11.29,-4.17 21.38,-10.43 30.37,-18.78 9.03,-8.36 15.85,-17.94 20.41,-28.67 4.55,-10.71 6.85,-22.56 6.85,-35.44 0,-19.15 -5.42,-36.4 -15.13,-50.49 -9.17,-13.31 -22.18,-23.78 -38.05,-30.33 l 58.7,-113.67 c 0.75,-1.33 1.09,-2.67 1.09,-3.91 0,-1.2 -0.31,-2.32 -0.89,-3.3 -0.56,-0.96 -1.38,-1.75 -2.38,-2.32 -1.07,-0.6 -2.33,-0.95 -3.7,-0.95 z m -637.08,286.52 c 0,2.4 0.63,4.23 1.98,5.59 1.38,1.35 3.21,1.97 5.61,1.97 h 38.87 c 2.1,0 4.09,-0.49 5.87,-1.53 1.65,-0.98 3.07,-2.41 4.17,-4.33 l 112.58,-190.56 v 188.86 c 0,2.39 0.61,4.21 1.96,5.57 1.36,1.36 3.19,1.99 5.59,1.99 h 36.76 c 2.4,0 4.23,-0.63 5.58,-1.97 1.37,-1.38 2,-3.2 2,-5.59 v -278.93 c 0,-2.4 -0.63,-4.23 -1.98,-5.58 -1.36,-1.38 -3.19,-2.01 -5.6,-2.01 h -38.46 c -2.09,0 -4.08,0.5 -5.87,1.55 -1.63,0.97 -3.06,2.39 -4.18,4.34 l -112.95,190.16 v -188.46 c 0,-2.41 -0.63,-4.25 -1.99,-5.6 -1.35,-1.36 -3.18,-1.99 -5.6,-1.99 H 5845 c -2.4,0 -4.23,0.63 -5.59,1.99 -1.37,1.35 -2,3.19 -2,5.6 z M 5598.9,1321.14 h 68.44 l -34.05,99.83 z m 6.91,176.39 c 0.62,2.17 1.65,3.79 3.14,4.93 1.51,1.15 3.34,1.69 5.55,1.69 h 38.89 c 2.22,0 4.05,-0.54 5.56,-1.69 1.5,-1.15 2.52,-2.78 3.13,-4.96 l 97.24,-278.94 c 0.7,-2.48 0.56,-4.45 -0.53,-6.03 -1.16,-1.67 -3,-2.46 -5.65,-2.46 h -41.44 c -2.21,0 -4.04,0.55 -5.55,1.71 -1.49,1.14 -2.52,2.77 -3.14,4.95 l -18.19,53.36 h -103.43 l -18.23,-53.5 c -0.65,-2.12 -1.66,-3.71 -3.11,-4.81 -1.51,-1.16 -3.34,-1.71 -5.57,-1.71 h -41 c -2.63,0 -4.48,0.79 -5.64,2.47 -1.07,1.58 -1.2,3.55 -0.5,6.02 z m -321.13,-235.96 h 41.9 c 15.19,0 27.5,2.89 36.88,8.61 9.27,5.65 15.79,14.16 19.55,25.44 l 0.03,0.09 c 1.57,4.35 2.78,11.57 3.6,21.68 0.84,10.31 1.26,23.55 1.26,39.74 0,16.18 -0.42,29.41 -1.26,39.72 -0.82,10.12 -2.03,17.34 -3.6,21.7 l -0.03,0.09 c -3.76,11.28 -10.28,19.77 -19.55,25.42 -9.38,5.72 -21.68,8.61 -36.88,8.61 h -41.9 z m -56.54,235.02 c 0,2.39 0.64,4.21 1.98,5.57 1.36,1.37 3.18,1.99 5.57,1.99 h 102.71 c 25.81,0 46.93,-5.46 63.45,-16.45 16.59,-11.05 28.45,-27.59 35.66,-49.68 l 0.02,-0.04 c 2.4,-7.65 4.26,-18.39 5.5,-32.17 1.2,-13.43 1.83,-29.67 1.83,-48.68 0,-19.02 -0.63,-35.26 -1.83,-48.69 -1.24,-13.79 -3.1,-24.53 -5.5,-32.19 l -0.02,-0.04 c -7.21,-22.07 -19.07,-38.62 -35.66,-49.66 -16.53,-11 -37.64,-16.48 -63.45,-16.48 h -102.71 c -2.38,0 -4.21,0.64 -5.57,2.01 -1.34,1.35 -1.98,3.18 -1.98,5.58 z m -238.51,-175.45 h 68.41 l -34.02,99.83 z m 6.91,176.39 c 0.62,2.17 1.64,3.79 3.13,4.93 1.53,1.15 3.36,1.69 5.56,1.69 h 38.89 c 2.2,0 4.02,-0.54 5.54,-1.69 1.5,-1.15 2.54,-2.78 3.15,-4.96 L 5150,1218.59 c 0.72,-2.5 0.59,-4.48 -0.48,-6.05 -1.18,-1.68 -3.02,-2.47 -5.66,-2.47 h -41.43 c -2.21,0 -4.04,0.55 -5.55,1.71 -1.49,1.14 -2.52,2.77 -3.14,4.95 l -18.19,53.36 h -103.43 l -18.23,-53.5 c -0.64,-2.12 -1.65,-3.71 -3.11,-4.81 -1.51,-1.16 -3.33,-1.71 -5.57,-1.71 h -41 c -2.63,0 -4.48,0.78 -5.64,2.46 -1.09,1.58 -1.23,3.56 -0.5,6.06 z m -262.78,-112.98 c 11.69,0 21.09,3.41 27.55,9.33 6.51,5.97 10.11,14.6 10.11,24.93 0,10.71 -3.56,19.41 -9.99,25.38 -6.45,5.99 -15.9,9.35 -27.67,9.35 h -56.68 v -68.99 z m -113.25,112.04 c 0,2.39 0.63,4.22 2.01,5.59 1.35,1.34 3.19,1.97 5.58,1.97 h 106.93 c 29.92,0 52.8,-7.35 68.4,-20.67 16.27,-13.89 24.52,-34.11 24.52,-59.16 0,-14.91 -2.88,-27.71 -8.7,-38.36 -5.03,-9.2 -12.22,-16.75 -21.6,-22.66 9.39,-5 18.04,-13.23 24.42,-23.98 6.71,-11.28 10.96,-25.36 10.96,-41.37 0,-28.91 -9.05,-50.79 -26.32,-65.56 -17.38,-14.85 -42.98,-22.32 -75.93,-22.32 H 4628.1 c -2.4,0 -4.24,0.63 -5.6,1.99 -1.36,1.37 -1.99,3.2 -1.99,5.6 v 278.93"
         style="fill:#4f4c4c;fill-opacity:1;fill-rule:nonzero;stroke:none"
         id="path30" /></g></g></svg>
